<svg id="Layer_1" data-name="Layer 1" xmlns="http://www.w3.org/2000/svg" viewBox="0 0 324.22 113.39"><defs><style>.cls-1{fill:#99cceb;}.cls-2{fill:#2b8ecd;}</style></defs><title>Mudani-Final</title><path class="cls-1" d="M308.72,51.1,262.81,8.7a9.06,9.06,0,0,0-15.21,6.66v8.86l6,5.57V15.36a3,3,0,0,1,1.83-2.81,3.41,3.41,0,0,1,1.28-.26,2.91,2.91,0,0,1,2,.82l45.9,42.4a3,3,0,0,1,1,2.3,3.05,3.05,0,0,1-1.07,2.27L258.65,99.45a3.06,3.06,0,0,1-5-2.32V85.27l-6,5.23v6.63a9.06,9.06,0,0,0,15,6.88l45.91-39.37a9.07,9.07,0,0,0,.25-13.54Z"/><path class="cls-2" d="M269,52,223.06,9.57a9.05,9.05,0,0,0-15.19,6.65v5.7l6,5.57V16.22a3,3,0,0,1,1.83-2.79,3.26,3.26,0,0,1,1.27-.27,3,3,0,0,1,2,.82l45.93,42.43a3,3,0,0,1-.08,4.55l-45.94,39.4a3,3,0,0,1-5-2.32V82.49l-6,5.22V98a9,9,0,0,0,5.27,8.23,9.16,9.16,0,0,0,3.8.84,9,9,0,0,0,5.87-2.2l45.93-39.39A9,9,0,0,0,269,52Z"/><path class="cls-2" d="M47.76,38.71V71.24H42.43v-21c0-.84,0-1.75.13-2.73L32.73,66a2.28,2.28,0,0,1-2.14,1.32h-.85A2.27,2.27,0,0,1,27.6,66l-10-18.54c.05.49.09,1,.12,1.46s0,.92,0,1.33v21H12.48V38.71h4.57c.27,0,.5,0,.69,0a1.66,1.66,0,0,1,.53.11,1.21,1.21,0,0,1,.43.29,2.67,2.67,0,0,1,.37.54l9.74,18.07a15.66,15.66,0,0,1,.71,1.49c.22.51.43,1,.64,1.57.21-.55.43-1.09.66-1.61s.46-1,.72-1.49l9.6-18a2.35,2.35,0,0,1,.39-.54,1.25,1.25,0,0,1,.44-.29,1.65,1.65,0,0,1,.52-.11c.2,0,.43,0,.7,0Z"/><path class="cls-2" d="M72.15,66.36a8,8,0,0,0,3.14-.59,6.39,6.39,0,0,0,2.33-1.64,7.28,7.28,0,0,0,1.45-2.56,10.81,10.81,0,0,0,.5-3.38V38.71h6.06V58.19a15.07,15.07,0,0,1-.94,5.37,11.94,11.94,0,0,1-6.92,7,16.38,16.38,0,0,1-11.27,0,11.94,11.94,0,0,1-6.92-7,15.07,15.07,0,0,1-.93-5.37V38.71H64.7V58.17a10.46,10.46,0,0,0,.51,3.37,7.09,7.09,0,0,0,1.46,2.58A6.54,6.54,0,0,0,69,65.77,8,8,0,0,0,72.15,66.36Z"/><path class="cls-2" d="M125.41,55a17.46,17.46,0,0,1-1.2,6.57,14.7,14.7,0,0,1-8.55,8.51,18.39,18.39,0,0,1-6.75,1.19H96.52V38.71h12.39a18.19,18.19,0,0,1,6.75,1.2,15.17,15.17,0,0,1,5.2,3.35,15,15,0,0,1,3.35,5.14A17.53,17.53,0,0,1,125.41,55Zm-6.21,0a15.23,15.23,0,0,0-.71-4.8,10.06,10.06,0,0,0-2-3.6,8.86,8.86,0,0,0-3.24-2.26,11,11,0,0,0-4.29-.79h-6.32V66.43h6.32a11.23,11.23,0,0,0,4.29-.79,9,9,0,0,0,3.24-2.26,10.15,10.15,0,0,0,2-3.6A15.25,15.25,0,0,0,119.2,55Z"/><path class="cls-2" d="M161.65,71.24H157a2,2,0,0,1-1.28-.39,2.39,2.39,0,0,1-.74-1l-2.43-6.64H139l-2.43,6.64a2.11,2.11,0,0,1-.7.94,1.91,1.91,0,0,1-1.28.43h-4.72l12.8-32.53h6.16ZM151,59l-4-10.83c-.2-.48-.4-1.05-.61-1.71s-.42-1.37-.63-2.13c-.2.76-.4,1.48-.61,2.15s-.41,1.24-.61,1.74L140.62,59Z"/><path class="cls-2" d="M196.5,38.71V71.24h-3.1a2.82,2.82,0,0,1-1.2-.23,2.85,2.85,0,0,1-.94-.8l-17-21.69c.09,1,.13,1.9.13,2.74v20h-5.33V38.71h3.17a6.45,6.45,0,0,1,.67,0,1.47,1.47,0,0,1,.49.14,1.51,1.51,0,0,1,.42.29,6.29,6.29,0,0,1,.45.5l17.05,21.78c0-.52-.08-1-.11-1.55s-.05-1-.05-1.42V38.71Z"/><path class="cls-2" d="M213.88,71.24H207.8V38.71h6.08Z"/></svg>